<svg width="65" height="65" viewBox="0 0 65 65" fill="none" xmlns="http://www.w3.org/2000/svg">
<mask id="mask0_122_226" style="mask-type:alpha" maskUnits="userSpaceOnUse" x="0" y="0" width="65" height="65">
<path d="M32.5 65C50.4493 65 65 50.4493 65 32.5C65 14.5507 50.4493 0 32.5 0C14.5507 0 0 14.5507 0 32.5C0 50.4493 14.5507 65 32.5 65Z" fill="white"/>
</mask>
<g mask="url(#mask0_122_226)">
<path d="M32.5 65C50.4493 65 65 50.4493 65 32.5C65 14.5507 50.4493 0 32.5 0C14.5507 0 0 14.5507 0 32.5C0 50.4493 14.5507 65 32.5 65Z" fill="#F2EEE2"/>
<path d="M48 49.06H18V130.333H48V49.06Z" fill="#3D4641"/>
<path d="M29.5318 49.06H23.9504V130.333H29.5318V49.06Z" fill="white"/>
<path d="M42.1159 49.06H36.5345V130.333H42.1159V49.06Z" fill="#F4BF6C"/>
<path fill-rule="evenodd" clip-rule="evenodd" d="M18 49.06H48L33.2058 19L18 49.06Z" fill="#F7D298"/>
<path fill-rule="evenodd" clip-rule="evenodd" d="M33.2112 18.9515L37.3441 27.4119H28.95L33.2112 18.9515Z" fill="#3D4641"/>
<path fill-rule="evenodd" clip-rule="evenodd" d="M18 49.06H32.9873V27.4167H28.945L18 49.06Z" fill="white"/>
</g>
</svg>
