<svg width="121" height="45" viewBox="0 0 121 45" fill="none" xmlns="http://www.w3.org/2000/svg">
<path fill-rule="evenodd" clip-rule="evenodd" d="M65.8004 17.4793C64.9348 17.9917 64.2635 18.6746 63.7445 19.5289C63.2465 20.3827 62.9863 21.3007 62.9863 22.2829C62.9863 23.2861 63.2465 24.2041 63.7445 25.058C64.2421 25.9123 64.9348 26.5741 65.779 27.0649C66.6441 27.5558 67.5752 27.812 68.5922 27.812C69.5878 27.812 70.5398 27.5558 71.384 27.0649C71.6005 26.9366 71.8165 26.7872 72.0121 26.6378L74.5651 28.1539L75.6904 26.3179L73.4826 25.0153C73.9811 24.1826 74.2185 23.265 74.2185 22.2829C74.2185 21.3007 73.9593 20.3827 73.4394 19.5289C72.9204 18.6746 72.2495 17.9917 71.384 17.4793C70.5184 16.9669 69.5878 16.7107 68.5922 16.7107C67.5965 16.7107 66.6441 16.9669 65.8004 17.4793ZM66.9476 25.2714C66.4282 24.9511 66.017 24.5455 65.7136 24.012C65.4107 23.478 65.2597 22.9019 65.2597 22.2828C65.2597 21.642 65.4107 21.0444 65.7136 20.5105C66.017 19.977 66.4282 19.5498 66.9258 19.251C67.4447 18.9522 68.0078 18.7812 68.6355 18.7812C69.2632 18.7812 69.8263 18.9307 70.3452 19.251C70.8647 19.5498 71.254 19.977 71.5574 20.5105C71.8603 21.0444 72.0122 21.621 72.0122 22.2828C72.0122 22.923 71.8603 23.4996 71.5783 24.0331C71.254 24.5455 70.8647 24.9726 70.3666 25.2714C69.869 25.5702 69.3064 25.7412 68.6787 25.7412C68.051 25.7412 67.4675 25.5918 66.9476 25.2714Z" fill="#3D4640"/>
<path fill-rule="evenodd" clip-rule="evenodd" d="M84.3693 16.8384L82.0101 22.966L79.4998 16.8384H76.9027L81.9018 28.1963L86.9228 16.8384H84.3693Z" fill="#3D4640"/>
<path fill-rule="evenodd" clip-rule="evenodd" d="M90.8833 16.8384V27.6844H98.5883V25.6348H93.0479V23.2864H97.7655V21.2157H93.0479V18.91H98.3718V16.8384H90.8833Z" fill="#3D4640"/>
<path fill-rule="evenodd" clip-rule="evenodd" d="M103.717 17.7137C103.09 18.2907 102.787 19.0373 102.787 19.9768C102.787 20.6171 102.938 21.151 103.241 21.5782C103.544 22.0048 103.912 22.3252 104.323 22.5599C104.735 22.795 105.254 23.0296 105.882 23.2647C106.942 23.6699 107.483 24.1612 107.483 24.7167C107.483 25.1434 107.31 25.4637 106.985 25.6558C106.639 25.8478 106.25 25.933 105.795 25.933C105.405 25.933 104.972 25.8478 104.474 25.6768C103.977 25.5064 103.544 25.2712 103.176 24.994L102.224 26.659C102.787 27.0431 103.392 27.3424 104.02 27.5344C104.67 27.7264 105.319 27.8117 105.968 27.8117C106.747 27.8117 107.44 27.6623 108.003 27.385C108.565 27.1072 108.998 26.7232 109.301 26.2534C109.604 25.7836 109.734 25.2502 109.734 24.6947C109.734 24.0544 109.604 23.5205 109.366 23.0938C109.128 22.6666 108.825 22.3463 108.457 22.0896C108.089 21.8554 107.635 21.6419 107.137 21.4503C106.51 21.2152 105.99 20.959 105.6 20.7028C105.21 20.4466 105.016 20.1473 105.016 19.8059C105.059 19.4218 105.189 19.1441 105.449 18.9731C105.708 18.7811 106.076 18.6958 106.553 18.6958C107.267 18.6958 108.089 18.952 109.041 19.4855L109.864 17.842C109.344 17.5001 108.803 17.2439 108.262 17.0734C107.721 16.8809 107.028 16.7957 106.206 16.7957C105.168 16.8383 104.345 17.1586 103.717 17.7137Z" fill="#3D4640"/>
<path fill-rule="evenodd" clip-rule="evenodd" d="M113.544 16.8384V18.91H116.097V27.6844H118.283V18.91H120.945V16.8384H113.544Z" fill="#3D4640"/>
<path fill-rule="evenodd" clip-rule="evenodd" d="M0 45H44.6115V0H0V45ZM1.66809 1.68213H42.9446V42.3413L30.1361 34.5864C34.0385 32.0126 36.607 27.5721 36.607 22.5083C36.607 14.5345 30.203 8.07454 22.2976 8.07454C14.3929 8.07454 7.98823 14.5345 7.98823 22.5083C7.98823 30.4817 14.3929 36.9417 22.2976 36.9417C24.5159 36.9417 26.6003 36.4368 28.4681 35.5286L41.3264 43.3171H1.66809V1.68213ZM9.68893 22.1716C9.87296 15.2913 15.4595 9.75659 22.3306 9.75659C29.302 9.75659 34.9723 15.4762 34.9723 22.5082C34.9723 27.252 32.3871 31.4068 28.5512 33.5939L9.68893 22.1716ZM9.78966 24.1904L26.7169 34.452C25.3496 34.9735 23.8656 35.2425 22.3143 35.2425C15.91 35.2425 10.6067 30.4145 9.78966 24.1904Z" fill="#3D4640"/>
<mask id="mask0_674_48" style="mask-type:alpha" maskUnits="userSpaceOnUse" x="0" y="0" width="45" height="45">
<path fill-rule="evenodd" clip-rule="evenodd" d="M0 45H44.6115V0H0V45ZM1.66809 1.68213H42.9446V42.3413L30.1361 34.5864C34.0385 32.0126 36.607 27.5721 36.607 22.5083C36.607 14.5345 30.203 8.07454 22.2976 8.07454C14.3929 8.07454 7.98823 14.5345 7.98823 22.5083C7.98823 30.4817 14.3929 36.9417 22.2976 36.9417C24.5159 36.9417 26.6003 36.4368 28.4681 35.5286L41.3264 43.3171H1.66809V1.68213ZM9.68893 22.1716C9.87296 15.2913 15.4595 9.75659 22.3306 9.75659C29.302 9.75659 34.9723 15.4762 34.9723 22.5082C34.9723 27.252 32.3871 31.4068 28.5512 33.5939L9.68893 22.1716ZM9.78966 24.1904L26.7169 34.452C25.3496 34.9735 23.8656 35.2425 22.3143 35.2425C15.91 35.2425 10.6067 30.4145 9.78966 24.1904Z" fill="white"/>
</mask>
<g mask="url(#mask0_674_48)">
</g>
</svg>
